<svg width="110" height="30" viewBox="0 0 110 30" fill="none" xmlns="http://www.w3.org/2000/svg">
<g filter="url(#filter0_d)">
<path d="M13.792 0.991999C17.712 0.991999 19.672 2.376 19.672 5.144C19.672 6.664 19.184 7.88 18.208 8.792C17.248 9.704 15.928 10.16 14.248 10.16C13.464 10.16 12.768 9.936 12.16 9.488C11.872 9.296 11.632 9.072 11.44 8.816C12.608 8.816 13.496 8.464 14.104 7.76C14.728 7.04 15.04 5.984 15.04 4.592C15.04 3.2 14.352 2.504 12.976 2.504H12.4C12.304 2.504 12.216 2.512 12.136 2.528L9.376 17H4.168L7.12 1.28C8.832 1.12 10.184 1.032 11.176 1.016C12.168 0.999999 13.04 0.991999 13.792 0.991999ZM28.735 15.2C28.735 14.08 28.959 12.4 29.407 10.16H25.855L24.535 17H19.519L22.567 1.16H27.631L26.239 8.24H29.791L31.111 1.16H36.175C35.951 2.344 35.695 3.6 35.407 4.928L34.591 8.84C33.983 11.88 33.679 14.064 33.679 15.392C33.679 15.936 33.767 16.36 33.943 16.664C33.143 17.208 32.271 17.48 31.327 17.48C30.399 17.48 29.735 17.256 29.335 16.808C28.935 16.36 28.735 15.824 28.735 15.2ZM46.4718 12.944C46.8718 13.216 47.0718 13.656 47.0718 14.264C47.0718 14.856 46.9198 15.344 46.6158 15.728C46.3118 16.112 45.9118 16.432 45.4158 16.688C44.3918 17.216 43.3278 17.48 42.2238 17.48C41.1198 17.48 40.2398 17.36 39.5838 17.12C38.9438 16.88 38.4078 16.536 37.9758 16.088C37.1278 15.24 36.7038 14.04 36.7038 12.488C36.7038 10.072 37.3598 8.128 38.6718 6.656C40.0798 5.072 42.0078 4.28 44.4558 4.28C45.9758 4.28 47.1118 4.6 47.8638 5.24C48.4238 5.72 48.7038 6.352 48.7038 7.136C48.7038 9.952 46.2718 11.36 41.4078 11.36C41.3438 11.776 41.3118 12.16 41.3118 12.512C41.3118 13.248 41.4718 13.76 41.7918 14.048C42.1278 14.32 42.5998 14.456 43.2078 14.456C43.8158 14.456 44.4398 14.32 45.0798 14.048C45.7358 13.76 46.1998 13.392 46.4718 12.944ZM41.5758 10.328C42.7118 10.328 43.6078 9.976 44.2638 9.272C44.9198 8.6 45.2478 7.728 45.2478 6.656C45.2478 6.288 45.1758 6.008 45.0318 5.816C44.9038 5.608 44.7038 5.504 44.4318 5.504C44.1598 5.504 43.9038 5.56 43.6638 5.672C43.4398 5.768 43.2078 5.992 42.9678 6.344C42.3758 7.144 41.9118 8.472 41.5758 10.328ZM59.6772 17.48C57.7412 17.48 56.7732 16.728 56.7732 15.224C56.7892 14.808 56.8612 14.248 56.9892 13.544L57.4212 11.336C57.8532 9.256 58.0692 7.984 58.0692 7.52C58.0692 6.592 57.7972 6.128 57.2532 6.128C56.3412 6.128 55.6452 7.32 55.1652 9.704L53.7492 17L48.9252 17.48L51.4212 4.736L55.3572 4.28L54.9732 6.632C55.7252 5.064 57.2532 4.28 59.5572 4.28C60.6772 4.28 61.4692 4.52 61.9332 5C62.4132 5.464 62.6532 6.224 62.6532 7.28C62.6532 8.272 62.3972 9.928 61.8852 12.248C61.6452 13.288 61.5252 14.008 61.5252 14.408C61.5252 14.792 61.6292 15.096 61.8372 15.32C62.0612 15.544 62.3332 15.672 62.6532 15.704C62.4932 16.248 62.1332 16.68 61.5732 17C61.0292 17.32 60.3972 17.48 59.6772 17.48ZM72.0841 10.256C72.6601 9.232 72.9481 8.2 72.9481 7.16C72.9481 6.472 72.7001 6.128 72.2041 6.128C71.8201 6.128 71.4281 6.456 71.0281 7.112C70.6121 7.768 70.3401 8.52 70.2121 9.368L68.9641 17L63.9961 17.48L66.4441 4.76L70.4041 4.28L69.9721 6.704C70.7561 5.088 72.0281 4.28 73.7881 4.28C74.7161 4.28 75.4281 4.52 75.9241 5C76.4361 5.48 76.6921 6.216 76.6921 7.208C76.6921 8.184 76.3641 8.984 75.7081 9.608C75.0681 10.232 74.1961 10.544 73.0921 10.544C72.6121 10.544 72.2761 10.448 72.0841 10.256ZM84.7197 14.288C83.8877 15.152 82.7117 15.584 81.1917 15.584C79.2877 15.584 78.1357 14.888 77.7357 13.496C77.6077 13.08 77.5437 12.64 77.5437 12.176C77.5437 11.712 77.5917 11.24 77.6877 10.76L78.8157 4.76L83.6877 4.28L82.3677 11.264C82.3357 11.472 82.2957 11.688 82.2477 11.912C82.1997 12.136 82.1757 12.368 82.1757 12.608C82.1757 12.832 82.2157 13.024 82.2957 13.184C82.3757 13.328 82.4717 13.448 82.5837 13.544C82.7757 13.672 83.0397 13.736 83.3757 13.736C83.7277 13.736 84.0477 13.528 84.3357 13.112C84.6397 12.696 84.8637 12.128 85.0077 11.408L86.3277 4.76L91.0557 4.28L89.2557 13.712C88.6637 16.784 87.7597 18.928 86.5437 20.144C85.9197 20.768 85.1997 21.2 84.3837 21.44C83.5837 21.696 82.6637 21.824 81.6237 21.824C79.9437 21.824 78.6237 21.56 77.6637 21.032C76.7037 20.504 76.2237 19.8 76.2237 18.92C76.2237 18.264 76.4717 17.744 76.9677 17.36C77.4637 16.992 78.0957 16.808 78.8637 16.808C79.5357 16.808 80.1277 16.952 80.6397 17.24C80.9437 17.416 81.1677 17.616 81.3117 17.84C80.9437 18.16 80.7597 18.584 80.7597 19.112C80.7597 19.816 81.0797 20.168 81.7197 20.168C82.7757 20.168 83.6077 18.952 84.2157 16.52C84.3917 15.8 84.5597 15.056 84.7197 14.288ZM99.5556 14.288C98.7236 15.152 97.5476 15.584 96.0276 15.584C94.1236 15.584 92.9716 14.888 92.5716 13.496C92.4436 13.08 92.3796 12.64 92.3796 12.176C92.3796 11.712 92.4276 11.24 92.5236 10.76L93.6516 4.76L98.5236 4.28L97.2036 11.264C97.1716 11.472 97.1316 11.688 97.0836 11.912C97.0356 12.136 97.0116 12.368 97.0116 12.608C97.0116 12.832 97.0516 13.024 97.1316 13.184C97.2116 13.328 97.3076 13.448 97.4196 13.544C97.6116 13.672 97.8756 13.736 98.2116 13.736C98.5636 13.736 98.8836 13.528 99.1716 13.112C99.4756 12.696 99.6996 12.128 99.8436 11.408L101.164 4.76L105.892 4.28L104.092 13.712C103.5 16.784 102.596 18.928 101.38 20.144C100.756 20.768 100.036 21.2 99.2196 21.44C98.4196 21.696 97.4996 21.824 96.4596 21.824C94.7796 21.824 93.4596 21.56 92.4996 21.032C91.5396 20.504 91.0596 19.8 91.0596 18.92C91.0596 18.264 91.3076 17.744 91.8036 17.36C92.2996 16.992 92.9316 16.808 93.6996 16.808C94.3716 16.808 94.9636 16.952 95.4756 17.24C95.7796 17.416 96.0036 17.616 96.1476 17.84C95.7796 18.16 95.5956 18.584 95.5956 19.112C95.5956 19.816 95.9156 20.168 96.5556 20.168C97.6116 20.168 98.4436 18.952 99.0516 16.52C99.2276 15.8 99.3956 15.056 99.5556 14.288Z" fill="white"/>
</g>
<defs>
<filter id="filter0_d" x="0.167999" y="0.991997" width="109.724" height="28.832" filterUnits="userSpaceOnUse" color-interpolation-filters="sRGB">
<feFlood flood-opacity="0" result="BackgroundImageFix"/>
<feColorMatrix in="SourceAlpha" type="matrix" values="0 0 0 0 0 0 0 0 0 0 0 0 0 0 0 0 0 0 127 0"/>
<feOffset dy="4"/>
<feGaussianBlur stdDeviation="2"/>
<feColorMatrix type="matrix" values="0 0 0 0 0 0 0 0 0 0 0 0 0 0 0 0 0 0 0.25 0"/>
<feBlend mode="normal" in2="BackgroundImageFix" result="effect1_dropShadow"/>
<feBlend mode="normal" in="SourceGraphic" in2="effect1_dropShadow" result="shape"/>
</filter>
</defs>
</svg>
